<?xml version="1.0" encoding="UTF-8" standalone="no"?>
<!-- Created with Inkscape (http://www.inkscape.org/) -->

<svg
   width="64"
   version="1.1"
   height="64"
   id="svg1"
   sodipodi:docname="media-optical-no.svg"
   inkscape:version="1.4 (e7c3feb100, 2024-10-09)"
   xmlns:inkscape="http://www.inkscape.org/namespaces/inkscape"
   xmlns:sodipodi="http://sodipodi.sourceforge.net/DTD/sodipodi-0.dtd"
   xmlns:xlink="http://www.w3.org/1999/xlink"
   xmlns="http://www.w3.org/2000/svg"
   xmlns:svg="http://www.w3.org/2000/svg">
  <sodipodi:namedview
     id="namedview1"
     pagecolor="#ffffff"
     bordercolor="#000000"
     borderopacity="0.25"
     inkscape:showpageshadow="2"
     inkscape:pageopacity="0.0"
     inkscape:pagecheckerboard="0"
     inkscape:deskcolor="#d1d1d1"
     inkscape:zoom="14.78125"
     inkscape:cx="32.033827"
     inkscape:cy="32"
     inkscape:window-width="1981"
     inkscape:window-height="1241"
     inkscape:window-x="0"
     inkscape:window-y="40"
     inkscape:window-maximized="1"
     inkscape:current-layer="layer1" />
  <defs
     id="defs5455">
    <linearGradient
       inkscape:collect="always"
       id="linearGradient4372"
       xlink:href="#linearGradient4227"
       y1="523.79797"
       y2="537.79797"
       x1="408.5715"
       gradientUnits="userSpaceOnUse"
       x2="422.57147"
       gradientTransform="matrix(1.2998888 0 0 1.3 -499.09733 -648.93736)" />
    <linearGradient
       inkscape:collect="always"
       id="linearGradient4227">
      <stop
         style="stop-color:#292c2f"
         id="stop4229" />
      <stop
         offset="1"
         style="stop-opacity:0"
         id="stop4231" />
    </linearGradient>
    <linearGradient
       inkscape:collect="always"
       id="linearGradient3834"
       xlink:href="#linearGradient4300-7"
       y1="540.79797"
       y2="506.798"
       x2="0"
       gradientUnits="userSpaceOnUse"
       gradientTransform="matrix(1.5292812 0 0 1.529412 -592.82053 -769.10295)" />
    <linearGradient
       inkscape:collect="always"
       id="linearGradient3862"
       xlink:href="#linearGradient4351-8"
       y1="540.79797"
       y2="506.798"
       x2="0"
       gradientUnits="userSpaceOnUse"
       gradientTransform="matrix(0.52941243 0 0 0.52941244 -184.30279 -245.30519)" />
    <linearGradient
       inkscape:collect="always"
       id="linearGradient4351-8">
      <stop
         style="stop-color:#dedede"
         id="stop4353-5" />
      <stop
         offset="1"
         style="stop-color:#ececec"
         id="stop4355-8" />
    </linearGradient>
    <linearGradient
       inkscape:collect="always"
       id="linearGradient4300-7">
      <stop
         style="stop-color:#f8d589;stop-opacity:1;"
         id="stop4302-2"
         offset="0" />
      <stop
         offset="1"
         style="stop-color:#b0a007;stop-opacity:1;"
         id="stop4304-4" />
    </linearGradient>
  </defs>
  <metadata
     id="metadata5458" />
  <g
     inkscape:label="Capa 1"
     inkscape:groupmode="layer"
     id="layer1"
     transform="matrix(1 0 0 1 -376.57144 -491.79797)">
    <path
       style="fill:url(#linearGradient3834)"
       id="rect4146"
       d="M 32,6 C 17.59725,6 6.0019531,17.59602 6.0019531,32 6.0019531,46.40398 17.59725,58 32,58 46.40275,58 57.998047,46.40398 57.998047,32 57.998047,17.59602 46.40275,6 32,6 Z m 0,23 c 1.662,0 3,1.338 3,3 0,1.662 -1.338,3 -3,3 -1.662,0 -3,-1.338 -3,-3 0,-1.662 1.338,-3 3,-3 z"
       transform="translate(376.57144,491.79797)"
       sodipodi:nodetypes="ssssssssss" />
    <path
       style="opacity:0.2;fill:url(#linearGradient4372);fill-rule:evenodd"
       id="path4364"
       d="m 38.125,25.375 -0.554688,0.882812 C 39.123469,27.764505 40.000026,29.83611 40,32 c 0,4.418278 -3.581722,8 -8,8 -2.480043,-0.0036 -4.818197,-1.157127 -6.330078,-3.123047 L 24.71875,37.375 42.683594,55.683594 c 5.77014,-2.59767 10.400537,-7.22931 12.998047,-13 z m -1.099609,1.751953 -2.289063,3.650391 C 34.90297,31.151175 35,31.562905 35,32 c 0,1.662 -1.338,3 -3,3 -0.641789,0 -1.231975,-0.204276 -1.71875,-0.544922 L 26.564453,36.40625 C 27.892737,38.045923 29.889819,38.998897 32,39 c 3.865993,0 7,-3.134007 7,-7 3e-5,-1.819226 -0.708186,-3.567001 -1.974609,-4.873047 z"
       transform="translate(376.57144,491.79797)"
       sodipodi:nodetypes="cccccccccccssccccc" />
    <path
       style="fill:url(#linearGradient3862)"
       id="rect4270"
       d="M 32 23 C 27.014 23 23 27.014 23 32 C 23 36.986 27.014 41 32 41 C 36.986 41 41 36.986 41 32 C 41 27.014 36.986 23 32 23 z M 32 24 A 8 8 0 0 1 40 32 A 8 8 0 0 1 32 40 A 8 8 0 0 1 24 32 A 8 8 0 0 1 32 24 z M 32 25 A 7 7 0 0 0 25 32 A 7 7 0 0 0 32 39 A 7 7 0 0 0 39 32 A 7 7 0 0 0 32 25 z M 32 29 C 33.662 29 35 30.338 35 32 C 35 33.662 33.662 35 32 35 C 30.338 35 29 33.662 29 32 C 29 30.338 30.338 29 32 29 z "
       transform="matrix(1 0 0 1 376.57144 491.79797)" />
    <path
       inkscape:connector-curvature="0"
       style="fill:#2e3132;fill-opacity:0.294118"
       id="rect4284"
       d="m 6.0019531,31.191406 c -0.005,0.21774 0,0.435127 0,0.654297 C 6.0019531,46.334943 17.59723,58 32,58 46.40277,58 57.998047,46.334943 57.998047,31.845703 c 0,-0.21917 0.005,-0.436557 0,-0.654297 C 57.654007,45.374776 46.18454,57 32,57 17.81546,57 6.3459931,45.374776 6.0019531,31.191406 Z"
       transform="matrix(1 0 0 1 376.57144 491.79797)" />
    <path
       style="fill:#2e3132;fill-opacity:0.294118;stroke-linecap:round"
       id="path4558"
       d="M 32 24 A 8 8 0 0 0 24 32 A 8 8 0 0 0 32 40 A 8 8 0 0 0 40 32 A 8 8 0 0 0 32 24 z M 32 25 A 7 7 0 0 1 39 32 A 7 7 0 0 1 32 39 A 7 7 0 0 1 25 32 A 7 7 0 0 1 32 25 z "
       transform="matrix(1 0 0 1 376.57144 491.79797)" />
  </g>
</svg>
